<?xml version="1.0" encoding="UTF-8" standalone="no"?>
<!DOCTYPE svg PUBLIC "-//W3C//DTD SVG 1.1//EN" "http://www.w3.org/Graphics/SVG/1.1/DTD/svg11.dtd">
<svg width="100%" height="100%" viewBox="0 0 512 512" version="1.1" xmlns="http://www.w3.org/2000/svg" xmlns:xlink="http://www.w3.org/1999/xlink" xml:space="preserve" xmlns:serif="http://www.serif.com/" style="fill-rule:evenodd;clip-rule:evenodd;stroke-linejoin:round;stroke-miterlimit:2;">
    <g transform="matrix(1.09636,0,0,1.09636,-49.336188,-43.85439)">
        <path d="M512,156.75L512,390.25C512,454.686 459.686,507 395.25,507L161.75,507C97.314,507 45,454.686 45,390.25L45,156.75C45,92.314 97.314,40 161.75,40L395.25,40C459.686,40 512,92.314 512,156.75Z" style="fill:rgb(34,34,34);"/>
    </g>
    <g transform="matrix(0.818649,0.818649,-0.818649,0.818649,192.433852,-273.01237)">
        <path d="M304.777,126.28C304.777,125.299 304.593,124.376 304.225,123.512C303.858,122.649 303.346,121.889 302.691,121.234C302.036,120.579 301.277,120.066 300.413,119.694C299.549,119.322 298.623,119.136 297.633,119.136C296.651,119.136 295.729,119.322 294.865,119.694C294.001,120.066 293.24,120.579 292.581,121.234C291.922,121.889 291.408,122.649 291.04,123.512C290.673,124.376 290.489,125.299 290.489,126.28C290.489,127.272 290.673,128.2 291.04,129.063C291.408,129.925 291.922,130.683 292.581,131.338C293.24,131.993 294.001,132.507 294.865,132.879C295.729,133.251 296.651,133.437 297.633,133.437C298.623,133.437 299.549,133.251 300.413,132.879C301.277,132.507 302.036,131.993 302.691,131.338C303.346,130.683 303.858,129.925 304.225,129.063C304.593,128.2 304.777,127.272 304.777,126.28Z" style="fill:white;fill-rule:nonzero;"/>
        <g transform="matrix(1,0,0,1,32.63472,32.63472)">
            <path d="M433.317,383.558C433.317,382.577 433.133,381.654 432.765,380.79C432.398,379.927 431.886,379.167 431.231,378.512C430.576,377.857 429.817,377.344 428.953,376.972C428.089,376.6 427.163,376.414 426.173,376.414C425.191,376.414 424.269,376.6 423.405,376.972C422.541,377.344 421.78,377.857 421.121,378.512C420.462,379.167 419.948,379.927 419.58,380.79C419.213,381.654 419.029,382.577 419.029,383.558C419.029,384.55 419.213,385.478 419.58,386.342C419.948,387.203 420.462,387.962 421.121,388.617C421.78,389.272 422.541,389.785 423.405,390.157C424.269,390.529 425.191,390.715 426.173,390.715C427.163,390.715 428.089,390.529 428.953,390.157C429.817,389.785 430.576,389.272 431.231,388.617C431.886,387.962 432.398,387.203 432.765,386.342C433.133,385.478 433.317,384.55 433.317,383.558Z" style="fill:white;fill-rule:nonzero;"/>
        </g>
        <path d="M226.117,204.941C225.135,204.941 224.212,204.757 223.349,204.389C222.485,204.021 221.726,203.51 221.071,202.855C220.416,202.2 219.902,201.44 219.53,200.577C219.158,199.713 218.972,198.786 218.972,197.797C218.972,196.815 219.158,195.892 219.53,195.029C219.902,194.165 220.416,193.404 221.071,192.744C221.726,192.085 222.485,191.572 223.349,191.204C224.212,190.836 225.135,190.652 226.117,190.652C227.108,190.652 228.035,190.836 228.897,191.204C229.76,191.572 230.52,192.085 231.175,192.744C231.83,193.404 232.343,194.165 232.715,195.029C233.087,195.892 233.273,196.815 233.273,197.797C233.273,198.786 233.087,199.713 232.715,200.577C232.343,201.44 231.83,202.2 231.175,202.855C230.52,203.51 229.76,204.021 228.897,204.389C228.035,204.757 227.108,204.941 226.117,204.941Z" style="fill:white;fill-rule:nonzero;"/>
        <path d="M504.926,312.147C504.926,311.166 504.743,310.243 504.375,309.379C504.007,308.516 503.496,307.756 502.841,307.101C502.186,306.446 501.426,305.933 500.562,305.561C499.699,305.189 498.772,305.003 497.782,305.003C496.801,305.003 495.878,305.189 495.014,305.561C494.151,305.933 493.389,306.446 492.73,307.101C492.071,307.756 491.558,308.516 491.19,309.379C490.822,310.243 490.638,311.166 490.638,312.147C490.638,313.139 490.822,314.067 491.19,314.931C491.558,315.792 492.071,316.55 492.73,317.205C493.389,317.861 494.151,318.374 495.014,318.746C495.878,319.118 496.801,319.304 497.782,319.304C498.772,319.304 499.699,319.118 500.562,318.746C501.426,318.374 502.186,317.861 502.841,317.205C503.496,316.55 504.007,315.792 504.375,314.931C504.743,314.067 504.926,313.139 504.926,312.147Z" style="fill:white;fill-rule:nonzero;"/>
        <path d="M226.117,319.198C225.135,319.198 224.212,319.015 223.349,318.647C222.485,318.279 221.726,317.768 221.071,317.113C220.416,316.457 219.902,315.698 219.53,314.834C219.158,313.971 218.972,313.044 218.972,312.054C218.972,311.073 219.158,310.15 219.53,309.286C219.902,308.423 220.416,307.661 221.071,307.002C221.726,306.343 222.485,305.83 223.349,305.462C224.212,305.094 225.135,304.91 226.117,304.91C227.108,304.91 228.035,305.094 228.897,305.462C229.76,305.83 230.52,306.343 231.175,307.002C231.83,307.661 232.343,308.423 232.715,309.286C233.087,310.15 233.273,311.073 233.273,312.054C233.273,313.044 233.087,313.971 232.715,314.834C232.343,315.698 231.83,316.457 231.175,317.113C230.52,317.768 229.76,318.279 228.897,318.647C228.035,319.015 227.108,319.198 226.117,319.198Z" style="fill:white;fill-rule:nonzero;"/>
        <path d="M504.926,197.691C504.926,196.71 504.743,195.787 504.375,194.923C504.007,194.06 503.496,193.3 502.841,192.645C502.186,191.99 501.426,191.477 500.562,191.105C499.699,190.733 498.772,190.547 497.782,190.547C496.801,190.547 495.878,190.733 495.014,191.105C494.151,191.477 493.389,191.99 492.73,192.645C492.071,193.3 491.558,194.06 491.19,194.923C490.822,195.787 490.638,196.71 490.638,197.691C490.638,198.683 490.822,199.611 491.19,200.474C491.558,201.336 492.071,202.094 492.73,202.749C493.389,203.404 494.151,203.918 495.014,204.29C495.878,204.662 496.801,204.848 497.782,204.848C498.772,204.848 499.699,204.662 500.562,204.29C501.426,203.918 502.186,203.404 502.841,202.749C503.496,202.094 504.007,201.336 504.375,200.474C504.743,199.611 504.926,198.683 504.926,197.691Z" style="fill:white;fill-rule:nonzero;"/>
        <g transform="matrix(1,0,0,1,-32.489277,32.489277)">
            <path d="M297.528,390.808C296.546,390.808 295.623,390.624 294.76,390.256C293.896,389.888 293.137,389.377 292.482,388.722C291.827,388.067 291.313,387.308 290.941,386.444C290.569,385.58 290.383,384.653 290.383,383.664C290.383,382.682 290.569,381.76 290.941,380.896C291.313,380.032 291.827,379.271 292.482,378.612C293.137,377.952 293.896,377.439 294.76,377.071C295.623,376.703 296.546,376.519 297.528,376.519C298.519,376.519 299.446,376.703 300.308,377.071C301.171,377.439 301.931,377.952 302.586,378.612C303.241,379.271 303.754,380.032 304.126,380.896C304.498,381.76 304.684,382.682 304.684,383.664C304.684,384.653 304.498,385.58 304.126,386.444C303.754,387.308 303.241,388.067 302.586,388.722C301.931,389.377 301.171,389.888 300.308,390.256C299.446,390.624 298.519,390.808 297.528,390.808Z" style="fill:white;fill-rule:nonzero;"/>
        </g>
        <path d="M433.317,126.28C433.317,125.299 433.133,124.376 432.765,123.512C432.398,122.649 431.886,121.889 431.231,121.234C430.576,120.579 429.817,120.066 428.953,119.694C428.089,119.322 427.163,119.136 426.173,119.136C425.191,119.136 424.269,119.322 423.405,119.694C422.541,120.066 421.78,120.579 421.121,121.234C420.462,121.889 419.948,122.649 419.58,123.512C419.213,124.376 419.029,125.299 419.029,126.28C419.029,127.272 419.213,128.2 419.58,129.063C419.948,129.925 420.462,130.683 421.121,131.338C421.78,131.993 422.541,132.507 423.405,132.879C424.269,133.251 425.191,133.437 426.173,133.437C427.163,133.437 428.089,133.251 428.953,132.879C429.817,132.507 430.576,131.993 431.231,131.338C431.886,130.683 432.398,129.925 432.765,129.063C433.133,128.2 433.317,127.272 433.317,126.28Z" style="fill:white;fill-rule:nonzero;"/>
        <path d="M427.955,261.27L459.495,289.636C461.875,291.752 462.437,294.298 461.181,297.273C459.925,300.248 457.71,301.67 454.536,301.538L412.284,299.356C410.301,299.224 408.581,299.885 407.127,301.339C405.672,302.794 405.011,304.513 405.143,306.497L422.055,374.062C422.187,377.368 420.765,379.616 417.79,380.807C414.814,381.997 412.269,381.468 410.153,379.22L380.149,336.847C379.224,335.789 378.133,335.524 376.876,336.053C375.62,336.582 374.992,337.508 374.992,338.83L367.057,495.901C366.793,498.943 365.074,500.464 361.9,500.464C358.858,500.464 357.139,498.943 356.742,495.901L349.006,338.83C349.006,337.508 348.345,336.615 347.022,336.152C345.7,335.69 344.576,335.921 343.65,336.847L313.845,379.22C311.597,381.468 309.018,381.997 306.109,380.807C303.2,379.616 301.811,377.368 301.943,374.062L318.855,306.497C318.987,304.513 318.326,302.794 316.871,301.339C315.416,299.885 313.631,299.224 311.515,299.356L269.462,301.538C266.288,301.67 264.073,300.248 262.817,297.273C261.561,294.298 262.123,291.752 264.503,289.636L295.646,261.27C297.233,259.948 298.027,258.261 298.027,256.212C298.027,254.162 297.233,252.476 295.646,251.153L264.503,222.787C262.123,220.671 261.561,218.126 262.817,215.15C264.073,212.175 266.288,210.753 269.462,210.885L311.515,213.067C313.631,213.2 315.383,212.539 316.772,211.084C318.161,209.629 318.855,207.91 318.855,205.926L316.673,163.675C316.408,160.501 317.764,158.286 320.739,157.03C323.715,155.773 326.327,156.335 328.575,158.716L356.742,190.057C358.197,191.512 359.916,192.239 361.9,192.239C363.883,192.239 365.536,191.512 366.859,190.057L395.225,158.716C397.341,156.335 399.887,155.773 402.862,157.03C405.837,158.286 407.259,160.501 407.127,163.675L404.945,205.926C404.813,207.91 405.474,209.629 406.928,211.084C408.383,212.539 410.102,213.2 412.086,213.067L454.337,210.885C457.511,210.753 459.726,212.175 460.983,215.15C462.239,218.126 461.677,220.671 459.297,222.787L427.955,251.153C426.5,252.476 425.773,254.162 425.773,256.212C425.773,258.261 426.5,259.948 427.955,261.27Z" style="fill:rgb(255,173,248);fill-rule:nonzero;"/>
        <path d="M355.552,97.421L355.552,86.115C355.552,81.883 357.668,79.767 361.9,79.767C366.264,79.767 368.446,81.883 368.446,86.115L368.446,97.421C368.446,101.653 366.264,103.769 361.9,103.769C357.668,103.769 355.552,101.653 355.552,97.421Z" style="fill:rgb(186,47,248);fill-rule:nonzero;"/>
        <path d="M354.759,163.278L354.759,119.043C354.759,114.679 357.139,112.497 361.9,112.497C366.661,112.497 369.041,114.679 369.041,119.043L369.041,163.278C369.041,164.997 368.347,166.485 366.958,167.741C365.57,168.998 363.883,169.626 361.9,169.626C357.139,169.626 354.759,167.51 354.759,163.278Z" style="fill:rgb(186,47,248);fill-rule:nonzero;"/>
        <path d="M255.18,148.202C258.089,145.029 258.089,141.987 255.18,139.078L247.047,130.945C244.005,127.903 240.964,127.903 237.922,130.945C234.881,133.986 234.881,137.094 237.922,140.268L246.055,148.202C249.097,151.244 252.138,151.244 255.18,148.202Z" style="fill:rgb(186,47,248);fill-rule:nonzero;"/>
        <path d="M292.472,194.62L261.329,163.476C258.288,160.435 258.288,157.393 261.329,154.352C264.371,151.31 267.412,151.31 270.454,154.352L301.597,185.495C304.506,188.404 304.506,191.446 301.597,194.62C298.556,197.661 295.514,197.661 292.472,194.62Z" style="fill:rgb(186,47,248);fill-rule:nonzero;"/>
        <g transform="matrix(1,0,0,1,16.490576,17.7121)">
            <path d="M468.62,361.642C465.578,364.816 465.578,367.858 468.62,370.767L476.554,378.701C479.596,381.875 482.637,381.875 485.679,378.701C488.721,375.66 488.721,372.618 485.679,369.577L477.744,361.642C474.703,358.601 471.661,358.601 468.62,361.642Z" style="fill:rgb(186,47,248);fill-rule:nonzero;"/>
        </g>
        <g transform="matrix(1,0,0,1,16.490576,17.7121)">
            <path d="M431.327,315.225L462.669,346.566C465.71,349.608 465.71,352.65 462.669,355.691C459.627,358.733 456.519,358.733 453.346,355.691L422.202,324.548C421.012,323.226 420.417,321.672 420.417,319.887C420.417,318.101 421.012,316.547 422.202,315.225C425.244,312.183 428.286,312.183 431.327,315.225Z" style="fill:rgb(186,47,248);fill-rule:nonzero;"/>
        </g>
        <path d="M210.746,254.922C210.746,252.806 210.118,251.054 208.862,249.666C207.606,248.277 206.118,247.649 204.399,247.781L193.092,247.781C191.241,247.781 189.72,248.475 188.53,249.864C187.339,251.253 186.744,252.939 186.744,254.922C186.744,259.683 188.86,262.063 193.092,262.063L204.399,262.063C208.631,262.063 210.746,259.683 210.746,254.922Z" style="fill:rgb(186,47,248);fill-rule:nonzero;"/>
        <path d="M269.661,262.063L225.425,262.063C221.061,262.063 218.879,259.683 218.879,254.922C218.879,250.162 221.061,247.781 225.425,247.781L269.661,247.781C271.38,247.649 272.9,248.277 274.223,249.666C275.545,251.054 276.207,252.806 276.207,254.922C276.207,259.683 274.025,262.063 269.661,262.063Z" style="fill:rgb(186,47,248);fill-rule:nonzero;"/>
        <path d="M512.855,254.922C512.855,259.683 515.037,262.063 519.401,262.063L530.708,262.063C534.939,262.063 537.055,259.683 537.055,254.922C537.055,250.162 534.939,247.781 530.708,247.781L519.401,247.781C515.037,247.781 512.855,250.162 512.855,254.922Z" style="fill:rgb(186,47,248);fill-rule:nonzero;"/>
        <path d="M454.139,247.781L498.374,247.781C502.738,247.781 504.92,250.162 504.92,254.922C504.92,259.683 502.738,262.063 498.374,262.063L454.139,262.063C452.42,262.063 450.932,261.369 449.676,259.981C448.42,258.592 447.791,256.906 447.791,254.922C447.791,250.162 449.907,247.781 454.139,247.781Z" style="fill:rgb(186,47,248);fill-rule:nonzero;"/>
        <g transform="matrix(1,0,0,1,-17.101338,17.101338)">
            <path d="M255.18,361.642C252.006,358.733 248.965,358.733 246.055,361.642L237.922,369.775C234.881,372.817 234.881,375.858 237.922,378.9C240.964,381.941 244.072,381.941 247.245,378.9L255.18,370.767C258.222,367.725 258.222,364.684 255.18,361.642Z" style="fill:rgb(186,47,248);fill-rule:nonzero;"/>
        </g>
        <g transform="matrix(1,0,0,1,-17.101338,17.101338)">
            <path d="M301.597,324.548L270.454,355.691C267.412,358.733 264.371,358.733 261.329,355.691C258.288,352.65 258.288,349.608 261.329,346.566L292.472,315.225C293.663,314.035 295.15,313.44 296.936,313.44C298.721,313.44 300.275,314.035 301.597,315.225C304.639,318.399 304.639,321.506 301.597,324.548Z" style="fill:rgb(186,47,248);fill-rule:nonzero;"/>
        </g>
        <path d="M468.62,148.202C471.793,151.112 474.835,151.112 477.744,148.202L485.877,140.07C488.919,137.028 488.919,133.986 485.877,130.945C482.836,127.903 479.728,127.903 476.554,130.945L468.62,139.078C465.578,142.119 465.578,145.161 468.62,148.202Z" style="fill:rgb(186,47,248);fill-rule:nonzero;"/>
        <path d="M422.202,185.495L453.346,154.352C456.519,151.31 459.627,151.31 462.669,154.352C465.71,157.393 465.71,160.435 462.669,163.476L431.327,194.62C428.286,197.661 425.244,197.661 422.202,194.62C419.161,191.578 419.161,188.536 422.202,185.495Z" style="fill:rgb(186,47,248);fill-rule:nonzero;"/>
    </g>
</svg>
